<svg height="230px" width="230px" version="1.1" id="Capa_1" xmlns="http://www.w3.org/2000/svg" xmlns:xlink="http://www.w3.org/1999/xlink" viewBox="-58 -58 174.00 174.00" xml:space="preserve" fill="#000000" transform="rotate(90)" stroke="#000000"><g id="SVGRepo_bgCarrier" stroke-width="0"><path transform="translate(-58, -58), scale(5.4375)" d="M16,27.100071124732494C18.021889833335685,27.2454470229237,20.253822548296238,27.40733386434708,21.916679402813315,26.247989337768946C23.563419798316183,25.099881213467526,23.472505887051934,22.609593438577253,24.709007076691314,21.028147580102086C26.222955942791845,19.09185493089232,29.81620447159262,18.45529262194148,29.929379262030125,16C30.040483424831738,13.589629014206832,26.35594129113739,12.806802781647036,25.185217273983238,10.696912334300581C23.983681051942096,8.531491825385238,24.80179214105196,5.499184333431206,23.102946692146364,3.6973354457492125C21.3316841070983,1.818678666983608,18.57927631554134,0.8362236161035513,16.000000000000004,0.954782148823142C13.447300967947703,1.072119035100611,11.217128145702047,2.685248322795373,9.264308276586238,4.333439710926182C7.512836893598032,5.811691799433341,6.435085868235988,7.836347843177435,5.414885068338441,9.888681044802064C4.446571432760864,11.836633079422391,3.0382705614179133,13.866903467625942,3.4649409372359514,15.999999999999998C3.888937636339496,18.119729748899946,6.307606398638867,19.118030027255337,7.606597795859102,20.845933021977537C8.71742544357513,22.323542822331994,9.072639075521032,24.326549422547707,10.554968627169725,25.43107098654854C12.103594764174712,26.584991827561836,14.073709947568098,26.961568946259657,16,27.100071124732494" fill="#7ed0ec" strokewidth="0"></path></g><g id="SVGRepo_tracerCarrier" stroke-linecap="round" stroke-linejoin="round"></g><g id="SVGRepo_iconCarrier"> <g> <polygon style="fill:#3778e1;" points="29,58 3,45 3,13 29,26 "></polygon> <polygon style="fill:#3778e1;" points="29,58 55,45 55,13 29,26 "></polygon> <polygon style="fill:#3778e1;" points="3,13 28,0 55,13 29,26 "></polygon> </g> </g></svg>