<svg id="visual" viewBox="0 0 100 100" width="250" height="400" xmlns="http://www.w3.org/2000/svg" xmlns:xlink="http://www.w3.org/1999/xlink" version="1.1"><g transform="translate(106.48111035250247 8.012506999313139)"><path d="M31 -49.8C40 -36.1 47.1 -26.8 50.8 -16.3C54.5 -5.8 54.8 6.1 54.2 20.6C53.6 35.1 52.1 52.4 42.9 60.2C33.7 68.1 16.8 66.5 2.2 63.6C-12.5 60.6 -25.1 56.2 -38.9 49.8C-52.7 43.5 -67.7 35.2 -67.4 24.6C-67.1 14.1 -51.4 1.2 -43.3 -11.1C-35.1 -23.4 -34.6 -35.1 -28.7 -49.9C-22.7 -64.6 -11.4 -82.3 -0.2 -82C11 -81.8 21.9 -63.5 31 -49.8" fill="#87CEEB"></path></g></svg>